<?xml version="1.0" encoding="UTF-8"?>
<svg id="Capa_1" data-name="Capa 1" xmlns="http://www.w3.org/2000/svg" viewBox="0 0 1280 1280">
  <defs>
    <style>
      .cls-1 {
        fill: #fff;
      }
    </style>
  </defs>
  <path d="M496.12,315.71c-.36.78-1.16,2.93-2.55,5.16-.96,1.54-2.53,2.92-3.54,4.53-1.18,1.88-2.57,3.45-3.29,4.67-.8,1.36-1.82,2.9-2.9,4.67-.87,1.44-.86,3.6-1.9,5.28-.91,1.47-3.07,2.29-4.09,3.93-.92,1.49-1.73,3.15-2.74,4.77-.94,1.5-2.1,2.93-3.11,4.54-.95,1.51-1.59,3.27-2.59,4.86s-1.86,3.11-2.85,4.7-1.37,3.43-2.36,5.01-2.86,2.5-3.85,4.07-1.8,3.17-2.79,4.74-1.88,3.12-2.86,4.69-1.41,3.42-2.4,4.98-1.47,3.38-2.45,4.95-2.94,2.47-3.91,4.03-1.53,3.36-2.5,4.92-1.48,3.39-2.45,4.95-2.24,2.91-3.21,4.47-1.85,3.16-2.82,4.72-1.93,3.12-2.89,4.68-2.52,2.76-3.48,4.32-.99,3.7-1.95,5.26-2.93,2.52-3.88,4.07-2.13,3.01-3.08,4.57-1.91,3.15-2.85,4.7-1.96,3.12-2.9,4.68-1.76,3.24-2.69,4.8-1.75,3.25-2.68,4.8-.85,3.79-1.76,5.34-2.92,2.57-3.83,4.13-1.22,3.58-2.11,5.13-2.32,2.95-3.2,4.5c-.93,1.64-2.1,3.09-2.96,4.64-.92,1.67-.69,3.88-1.53,5.43-.92,1.7-2.54,2.9-3.34,4.44-.91,1.74-1.02,3.73-1.76,5.25-.9,1.84-1.81,3.41-2.43,4.89-.91,2.15-2.37,3.6-2.65,4.88-.42,1.97-.43,3.94-.55,5.79-.13,1.99.77,3.84.97,5.7.2,1.96.31,3.78.83,5.61s.72,3.8,1.54,5.54,1.88,3.34,2.94,4.96,1.61,3.58,2.84,5,2.55,2.94,3.96,4.19,3.32,1.99,4.88,3.05,3.18,2.09,4.87,2.96,3.29,2.06,5.07,2.71,3.76.83,5.6,1.27,3.72.91,5.6,1.13,3.81.2,5.71.2,3.7-.3,5.56-.3,3.7.77,5.56.78,3.7-.35,5.56-.35,3.7-.05,5.56-.04,3.71-.61,5.56-.61,3.7.22,5.56.23,3.71-.68,5.56-.68,3.7,1.55,5.55,1.55,3.71-.42,5.56-.42,3.71-.88,5.56-.88,3.7,1.12,5.56,1.12,3.71-1.2,5.56-1.2,3.7,1.08,5.56,1.08,3.7.17,5.56.17,3.71-1.04,5.56-1.04,3.7,1.27,5.56,1.27,3.71-1.6,5.56-1.6,3.7,1.5,5.56,1.51,3.71-.14,5.56-.14,3.71-.53,5.56-.53,3.7.29,5.56.3,3.71-.6,5.56-.6,3.71-.62,5.56-.61,3.7.55,5.56.55,3.7.73,5.56.73,3.71-.84,5.56-.84,3.71-.12,5.56-.11,3.71.28,5.56.28,3.7,1.22,5.56,1.22,3.71-.7,5.56-.7,3.71-.3,5.56-.3,3.71.42,5.56.42,3.71.25,5.56.26,3.71-1.26,5.56-1.25,3.71.4,5.56.4,3.71.61,5.56.61,3.71.4,5.56.4,3.71-.61,5.56-.61,3.71-.16,5.56-.16,3.71.18,5.56.18,3.71-.9,5.56-.9,3.71,1.53,5.56,1.53,3.71.1,5.56.11,3.71.07,5.56.07,3.71-.63,5.56-.63,3.71.44,5.56.44,3.71-.08,5.56-.08,3.71-1.1,5.56-1.09,3.71,1.12,5.56,1.13,3.71-.26,5.56-.25,3.71-1.2,5.56-1.2,3.71.49,5.56.49,3.71.17,5.56.18,3.71-.61,5.56-.61,3.71.5,5.56.5,3.71-.36,5.56-.36,3.71.72,5.56.72,3.71.78,5.56.79,3.71-.12,5.56-.12,3.71-.25,5.56-.25,3.71,0,5.56,0,3.71-.34,5.56-.34,3.71.12,5.56.12,3.71.08,5.56.09,3.71-.55,5.56-.55,3.71.12,5.56.12,3.71-.65,5.56-.65,3.71.9,5.56.91,3.71-.7,5.56-.7,3.71.68,5.56.68,3.71-.84,5.56-.83,3.71.37,5.56.37,3.71.28,5.56.28,3.71.12,5.56.12,3.71.92,5.56.93,3.71-1.15,5.56-1.15,3.71.04,5.56.05,3.71.99,5.56.99,3.71-.78,5.56-.78,3.71.96,5.56.96,3.71-1.01,5.56-1.01,3.71.97,5.56.97,3.71-.38,5.56-.38,3.71.23,5.56.23,3.71-.6,5.56-.59,3.71.35,5.56.36,3.71-.28,5.56-.27,3.71-.33,5.56-.33,3.71.02,5.56.02,3.71-.35,5.56-.34,3.71.46,5.56.47,3.71-.68,5.56-.68,3.7.62,5.56.63,3.7,1.09,5.56,1.09,3.71-.9,5.56-.89,3.71.31,5.56.31,3.71-1.1,5.56-1.1,3.7.74,5.56.74,3.7.32,5.56.32,3.71-.27,5.56-.27,3.71-.48,5.56-.47,3.7,1.19,5.56,1.19,3.71-1.34,5.56-1.34,3.7.69,5.56.7,3.71-.16,5.56-.16,3.7.91,5.56.92,3.71-.66,5.56-.65,3.71-.75,5.56-.74,3.7.74,5.55.74,3.71-.81,5.56-.81,3.7.08,5.55.09,3.7,1.35,5.55,1.35,3.7.02,5.56.02,3.7-.24,5.56-.23,3.71-.96,5.56-.96,3.7.84,5.55.84,3.7.63,5.55.64,3.7-.04,5.55-.04,3.7-1.46,5.55-1.46,3.7.67,5.54.68,3.62-.05,5.46-.07,3.64.49,5.47.45,3.61-.78,5.44-.84,3.66.84,5.5.76,3.63-.21,5.46-.3,3.62-.44,5.45-.53,3.63-.2,5.46-.3,3.64-.15,5.46-.25,3.66.2,5.48.1,3.6-.86,5.42-.96,3.64-.08,5.46-.17,3.58-1.32,5.4-1.41,3.7.93,5.52.85,3.61-1.03,5.43-1.11,3.65-.23,5.47-.29,3.67.74,5.49.7,3.65.02,5.46,0,3.65.19,5.46.19,3.64.35,5.46.38,3.66-.62,5.47-.57,3.69-.58,5.49-.49,3.61.93,5.41,1.06,3.59.81,5.39.98,3.95-.78,5.79-.29,3.77.99,5.49,1.75,3.07,2.44,4.62,3.46c1.63,1.07,3.51,1.81,4.81,3.1,1.4,1.39,2.5,3.07,3.4,4.65.96,1.7,2.1,3.54,2.31,5.39s-.56,3.84-1.22,5.74c-.57,1.63-1.85,3.05-3.16,4.69-1.07,1.33-2.5,2.46-4.13,3.77-1.24,1-2.87,1.52-4.87,2.27-1.58.59-2.95,2.47-4.93,2.92-1.69.38-3.8-.79-5.75-.5-1.75.26-3.44,1.68-5.36,1.87-1.78.18-3.68-.1-5.59.03-1.81.12-3.66.16-5.56.24s-3.65.99-5.54,1.03-3.71-1.15-5.58-1.14-3.7,1.16-5.56,1.15-3.69-1.25-5.55-1.28-3.72.48-5.58.44-3.74.41-5.58.35-3.7-.89-5.54-.96-3.76.6-5.59.52-3.7-1.29-5.52-1.37-3.76-.04-5.57-.12c-1.91-.08-3.77-.2-5.56-.27-1.94-.08-3.83.69-5.59.63-1.98-.07-3.83-.3-5.55-.34-2.07-.05-3.93-.1-5.56-.08-1.85.02-3.7.79-5.55.81s-3.72-1.66-5.57-1.64-3.69,1.15-5.54,1.17-3.7.1-5.55.12-3.7.31-5.55.32-3.71-1.05-5.56-1.03-3.7.33-5.55.34-3.7.99-5.55,1.01-3.71-.94-5.56-.92-3.7-.31-5.56-.29-3.7-.12-5.55-.11-3.69,1.27-5.55,1.28-3.71-.96-5.56-.94-3.7,1.09-5.55,1.1-3.7.15-5.55.16-3.71-.63-5.56-.62-3.7.61-5.55.62-3.71-.45-5.56-.44-3.7-.33-5.56-.32-3.7.39-5.55.4-3.7-.09-5.55-.08-3.7-.17-5.55-.16-3.7.84-5.55.85-3.7-.23-5.55-.22-3.71-.78-5.56-.77-3.7-.24-5.55-.23-3.7,1.03-5.55,1.04-3.7.3-5.55.31-3.7-.62-5.56-.61-3.7.15-5.55.16-3.71-.64-5.56-.64-3.7.15-5.55.16-3.7-.67-5.56-.66-3.7.83-5.55.84-3.71-.79-5.56-.78-3.7,1.23-5.55,1.24-3.71-1.16-5.56-1.15-3.7,1.6-5.55,1.6-3.71-.92-5.56-.92-3.7.65-5.55.66-3.71-1.09-5.56-1.08-3.7-.25-5.55-.25-3.7.17-5.55.17-3.7.27-5.55.27-3.7-.42-5.55-.42-3.7,1-5.55,1.01-3.7.14-5.55.14-3.71-1.06-5.56-1.05-3.7.22-5.55.23-3.7,1.34-5.55,1.35-3.7-.4-5.55-.4-3.7.6-5.55.6-3.71-1.27-5.56-1.26-3.7-.16-5.55-.16-3.7,1.4-5.55,1.4-3.7-.89-5.56-.89-3.7-.11-5.55-.11-3.7-.09-5.55-.09-3.7.7-5.55.7-3.7.17-5.55.18-3.71-1.28-5.56-1.28-3.7,1.55-5.55,1.55-3.7-.25-5.55-.25-3.7-.22-5.55-.21-3.7-.33-5.55-.32-3.7-.48-5.56-.47-3.7.4-5.55.41-3.7.99-5.55,1-3.7-.48-5.56-.47-3.71-.94-5.56-.93-3.7,1.1-5.55,1.11-3.7-.57-5.56-.56-3.7.16-5.55.17-3.71-.7-5.56-.69-3.7-.07-5.55-.06-3.7,1.32-5.55,1.33-3.71-.85-5.56-.84-3.7.96-5.55.97-3.7-.09-5.55-.08-3.71-1.1-5.56-1.09-3.7.7-5.55.72-3.71-.67-5.56-.66-3.7.06-5.55.07-3.69,1.38-5.54,1.39-3.71-1.47-5.56-1.45-3.7,1-5.55,1.01-3.71-.88-5.56-.86-3.69,1.25-5.54,1.26-3.7.32-5.55.34-3.71-1.51-5.57-1.49-3.7.81-5.55.83-3.71-.82-5.56-.8-3.7.16-5.55.18-3.7.62-5.55.64-3.7.54-5.55.56-3.7-.04-5.55-.02-3.71-.55-5.56-.53-3.7.41-5.55.43-3.7.36-5.55.38-3.7-.16-5.55-.14-3.7.4-5.55.42-3.7.12-5.55.14-3.71-.46-5.56-.43-3.7.37-5.55.39-3.71-.97-5.57-.94-3.7.46-5.55.48-3.7.17-5.55.19-3.69.56-5.55.58-3.72-1.09-5.57-1.07-3.68,1.37-5.53,1.39-3.72-1.15-5.57-1.13-3.69.63-5.54.66-3.69.48-5.55.51-3.72-1.06-5.57-1.03-3.7.19-5.55.22-3.65-.08-5.48-.09-3.65-.13-5.47-.16-3.67.58-5.5.53-3.64-.51-5.47-.58-3.67.35-5.5.29-3.63-.87-5.45-.94-3.68.47-5.51.41-3.66.27-5.49.23-3.64-.94-5.47-.96-3.66.17-5.5.18-3.64.78-5.47.83-3.69-.74-5.52-.65-3.62.74-5.45.89-3.68-.1-5.51.1-3.49,1.49-5.31,1.75-3.61.39-5.42.72-3.81-.46-5.61-.06-3.35,1.81-5.1,2.24-3.61.64-5.36,1.12-3.57.83-5.3,1.35-3.55.96-5.26,1.53-3.33,1.59-5.03,2.21-3.24,1.76-4.92,2.43-3.48,1.13-5.14,1.86-3.29,1.57-4.93,2.34-3.43,1.29-5.04,2.11-3.44,1.31-5.03,2.19-3.39,1.46-4.95,2.38-2.77,2.48-4.31,3.46-3.39,1.5-4.89,2.53-2.57,2.7-4.04,3.77-2.58,2.62-4.02,3.73-3.21,1.8-4.62,2.96-2.99,2.1-4.37,3.3-2.34,2.84-3.68,4.07-3.15,1.96-4.46,3.23-1.93,3.22-3.21,4.52-3.27,1.91-4.51,3.24-2.83,2.36-4.05,3.72-2.31,2.84-3.5,4.22-1.71,3.33-2.88,4.73-3.24,2.06-4.39,3.49-1.71,3.3-2.83,4.74-2.15,2.94-3.24,4.4-1.84,3.16-2.92,4.64-2.81,2.46-3.87,3.95-2.12,2.97-3.16,4.47-.95,3.76-1.98,5.28-2.11,2.96-3.12,4.48-2.75,2.54-3.75,4.07-1.19,3.57-2.18,5.1-3.33,2.18-4.32,3.71-1.45,3.4-2.43,4.94-1.73,3.22-2.71,4.76-2.41,2.78-3.39,4.33-1,3.68-1.98,5.22-2.5,2.73-3.48,4.28c-.77,1.2-1.32,3.04-2.48,4.94-.86,1.4-2.43,2.61-3.48,4.34-.89,1.47-2.27,2.78-3.28,4.46-.9,1.5-1.69,3.18-2.67,4.82-.91,1.52-.94,3.65-1.92,5.27-.92,1.53-2.61,2.66-3.58,4.28s-1.8,3.16-2.76,4.77-1.54,3.33-2.5,4.93-1.94,3.09-2.9,4.68-2.3,2.88-3.26,4.47-2.08,3.02-3.04,4.6-1.81,3.19-2.76,4.77-2.22,2.95-3.18,4.52-1.93,3.13-2.89,4.7-1.46,3.42-2.42,4.98-1.63,3.33-2.59,4.88-2.58,2.75-3.54,4.3-2.07,3.07-3.03,4.61-1.64,3.35-2.6,4.87-1.27,3.59-2.24,5.11c-1.01,1.6-1.58,3.43-2.54,4.92-1.03,1.6-2.3,2.98-3.27,4.46-1.06,1.62-2.22,3.06-3.19,4.51-1.1,1.64-2.05,3.24-3.02,4.62-1.19,1.7-2.91,2.74-3.87,3.99-1.57,2.05-2.65,3.54-3.49,4.19-1.86,1.45-4.9,3.3-7.12,3.45-2,.14-4.04.41-5.84.02-1.92-.42-3.59-1.65-5.24-2.57s-2.91-2.42-4.25-3.78-3.29-2.34-4.23-4.02-1.75-3.59-2.22-5.45-.69-3.92-.65-5.86,1.06-3.74,1.63-5.61.67-3.9,1.73-5.58c1.48-2.35,2.42-1.76,3.9-4.11s.38-3.04,1.86-5.39,1.77-2.17,3.25-4.52,2.4-1.77,3.88-4.13,1.33-2.45,2.81-4.81,1.03-2.64,2.51-4.99,1.06-2.61,2.54-4.97,2.49-1.72,3.97-4.07,1.68-2.23,3.16-4.58.53-2.95,2.01-5.3,1.41-2.4,2.89-4.75,1.55-2.31,3.03-4.67,1.73-2.19,3.21-4.55,2.17-1.92,3.65-4.27,1.41-2.4,2.9-4.75,1.12-2.58,2.6-4.94,1.33-2.45,2.81-4.8,1.18-2.55,2.66-4.9,1.56-2.31,3.04-4.66,2.31-1.83,3.79-4.19.79-2.79,2.27-5.15,1.25-2.5,2.73-4.86,1.65-2.25,3.13-4.6,1.96-2.05,3.44-4.41,1.78-2.17,3.26-4.52,1.06-2.62,2.54-4.97,1.23-2.51,2.71-4.87,1.95-2.06,3.43-4.42.62-2.89,2.11-5.25,1.32-2.46,2.8-4.81,2.33-1.82,3.81-4.18,1.41-2.41,2.89-4.76.74-2.83,2.22-5.19,1.99-2.04,3.44-4.42c.39-.78,1.44-2.35,2.39-4.58.6-1.4.63-3.29,1.35-5.02.63-1.52.83-3.32,1.5-4.96s1.79-3,2.43-4.58,1.28-3.28,1.88-4.8c.7-1.76,1.96-3.15,2.5-4.56.98-2.57,1.05-4.52,1.11-5,.23-1.82.66-3.62.5-5.44s-1-3.48-1.5-5.26-1.19-3.35-1.95-5.04-1.49-3.25-2.47-4.82-1.73-3.2-2.88-4.64-2.55-2.58-3.85-3.88-2.88-2.18-4.29-3.33-2.43-2.81-3.95-3.8-3.41-1.36-5.03-2.16-3.02-2.25-4.72-2.82-3.67-.4-5.43-.69-3.39-1.87-5.21-2.09-3.71.62-5.54.46-3.57-.83-5.4-.94-3.64.42-5.47.36-3.61-.83-5.44-.85-3.63.3-5.46.32-3.63-.05-5.45-.01-3.63.06-5.45.12-3.63.1-5.45.19-3.57,1.33-5.39,1.43-3.71-1.11-5.52-1-3.56,1.39-5.37,1.51-3.62.37-5.43.49-3.64.23-5.44.35-3.7-.8-5.51-.69-3.65.08-5.45.18-3.63.34-5.43.42-3.65.02-5.45.09-3.63.85-5.43.88-3.67.49-5.46.49c-2.13,0-4.07-1.5-5.86-1.51-2.18,0-4.11-.08-5.86-.09-2.25-.01-4.18.8-5.86.78-2.33-.03-4.18-1.02-5.83-1.06-2.14-.06-3.95.65-5.87.54-1.72-.09-3.53-.5-5.83-.64-1.66-.1-3.57-.1-5.85-.22-1.72-.09-3.66.1-5.87,0s-3.8-.97-5.36-1.78c-1.75-.91-4.02-1.42-5.11-2.98s-.64-3.92-1.12-5.83c-.45-1.81-1.47-3.62-1.41-5.58s.38-3.88.88-5.73,1.26-3.72,2.18-5.37,2.63-2.81,4.01-4.11,2.54-3.16,4.35-3.86c1.04-.4,3.3.07,5.9-.22,1.71-.19,3.58-1.35,5.68-1.5,1.84-.13,3.85.6,5.83.5s3.86-.55,5.76-.63c2-.08,3.93-.83,5.76-.89,2.15-.07,4.15.81,5.8.76,1.92-.06,3.79.73,5.57.68,1.93-.05,3.77-.32,5.54-.35,1.94-.03,3.78-.37,5.54-.39,1.95-.02,3.79-.06,5.55-.05,1.96,0,3.8.17,5.55.19,1.97.03,3.79.47,5.53.52,1.97.05,3.81-.24,5.55-.17,1.97.08,3.85-.82,5.59-.73,1.94.11,3.68,1.56,5.46,1.67,1.88.12,3.77-.8,5.6-.69s3.6,1.06,5.5,1.13c1.76.07,3.63-1.29,5.58-1.26,1.74.03,3.56.65,5.53.63,1.74-.01,3.58.07,5.55.02,1.74-.05,3.61.58,5.57.5,1.75-.08,3.6-.05,5.55-.16,1.75-.1,3.5-1.82,5.44-1.95,1.76-.12,3.62-.04,5.54-.18,1.77-.13,3.63-.06,5.55-.21,1.78-.14,3.63-.2,5.54-.36s3.68-.24,5.49-.43,3.78.53,5.59.3,3.54-1.41,5.34-1.68,3.81.39,5.6.08,3.58-.99,5.37-1.35,3.4-1.74,5.18-2.13,3.61-.69,5.38-1.14,3.83.07,5.59-.42,3.18-2.24,4.92-2.78,3.46-1.19,5.19-1.77,3.93.09,5.64-.54,3.2-1.94,4.9-2.62,3.35-1.52,5.02-2.25,3.15-1.93,4.8-2.71,3.97-.25,5.6-1.08,3.29-1.69,4.9-2.56,3.31-1.67,4.89-2.58,2.64-2.77,4.19-3.73,3.39-1.53,4.92-2.53,2.97-2.18,4.47-3.23,3.26-1.79,4.72-2.88,3.07-2.06,4.51-3.19,1.86-3.54,3.27-4.71,3.14-1.95,4.52-3.16,3.5-1.61,4.85-2.86,2.62-2.6,3.94-3.88,2.47-2.74,3.76-4.05,2.16-3.02,3.42-4.35,2.22-2.94,3.45-4.3,2.27-2.87,3.48-4.26,3.1-2.17,4.28-3.58,2.48-2.72,3.63-4.15,2.28-2.88,3.4-4.33,2.29-2.87,3.4-4.34,2.03-3.07,3.11-4.55,2.31-2.86,3.37-4.36,1.72-3.27,2.77-4.79,2.57-2.69,3.6-4.21,1.34-3.52,2.35-5.05,2.42-2.8,3.42-4.34,2.46-2.78,3.45-4.34,1.83-3.19,2.8-4.75,1.28-3.52,2.24-5.09,1.9-3.13,2.85-4.71,1.68-3.27,2.61-4.85,2.25-2.92,3.18-4.51,2.06-3.04,2.99-4.63,1.74-3.23,2.66-4.82,1.11-3.6,2.02-5.19,2.03-3.06,2.94-4.66,1.72-3.24,2.64-4.83,2.02-3.07,2.93-4.66,2.65-2.7,3.57-4.29,1.38-3.44,2.3-5.03,1.64-3.29,2.56-4.88,1.75-3.23,2.68-4.81,2.66-2.69,3.6-4.27,1.33-3.48,2.27-5.05,1.84-3.18,2.79-4.75,1.83-3.18,2.79-4.75,2.06-3.04,3.03-4.6,1.22-3.57,2.2-5.12,2.65-2.66,3.65-4.21,1.87-3.16,2.88-4.7,1.82-3.2,2.84-4.73,2.93-2.45,3.97-3.96,1.45-3.45,2.51-4.96,1.98-3.09,3.06-4.59,2-3.09,3.09-4.56c.73-.99,1.94-2.43,2.99-3.98s1.88-3.44,2.62-4.31c1.21-1.44,3.45-1.64,4.77-2.7,1.46-1.17,2.05-3.59,3.58-4.32,1.68-.8,3.7-.89,5.39-1.17,1.82-.3,3.76-.58,5.47-.32s3.56,1.17,5.1,2.02,3.44,1.72,4.61,3.1c1.1,1.31.65,3.67,1.31,5.42.59,1.57,1.65,3.04,1.8,4.94.13,1.66.47,3.48.21,5.37-.23,1.65-.73,3.41-1.3,5.22-.5,1.6-1.15,3.29-1.95,5.01Z"/>
  <path d="M352.89,357.31c.23.28-.18,1.13.16,1.41.6.48,2.07.1,2.5.52.16.16-.48,1.01.01,1.12,2.26.5,3.99,1.7,5.86,3.08.24.18,2.85,4.68,2.87,4.99.02.33-.59,4.81-.7,5.13-1,2.76-2.32,4.74-2.85,7.2-.19.87.93,1.31.74,2.18-.57,2.62-2.55,5.53-2.97,9.15s-1.34,4.05-2.07,6.88c-.43,1.66.36,5.03-.24,6.67-1.07,2.9-4.44,6.89-5.48,9.76-.57,1.57,1.05,1.65.08,3.87-4.81,11.06-14.94,24.44-20.15,35.76-15.07,8.07-16.65,23.93-24.79,33.18-1.4,1.59-2.95,2.79-5.02,5.24-.49.58-1.55.31-1.97.84-1.8,2.32-5.26,5.7-8.35,7.84-9.09,6.3-27.56,18.79-37.32,22.02-2.23.74-6.25,1.16-8.59,1.78-1.3.34-2.37,1.45-3.46,1.7-4.86,1.14-11.23.11-15.42.08-9.19-.08-24.24,1.46-31.77.06-.69-.13.34-1.62-.59-1.9-1.75-.54-5.21-.87-7.15-1.37-.69-.18.07-1.25-.33-1.62-1.49-1.41-3.53-1.14-5.23-3.91s-1.95-3.41-4.22-5.79c-5.98-6.29-2.88-8.32-4.91-15.19-.17-.57-1.95-2.03-2.01-2.28-.14-.58,1.3-2.25,1.58-3.33.1-.41.43-7.29.36-7.63-.12-.53-1.47-.45-1.26-1.06.62-1.82,2.93-4.46,3.63-6.41.32-.9,1.57-5.09,1.72-5.81.2-.95-1.58-.79-1.34-1.46,1.12-3.23,5.31-8.22,6.56-11.62.47-1.26-.42-1.89-.25-2.9.76-4.42,5.37-6.85,7.62-10.1,9.04-13.04,14.96-28.94,23.76-42.29,4.17-1.68,7.05-7.43,9.69-10.4,1.42-1.6,10.62-8.77,11.06-9.32,2.84-3.62,6.24-5.54,10.92-8.87,1.2-.85,3.59-1.84,5.04-3.12,5.15-4.51,5.53-5.76,12.36-9.07,4.14-2.01,8.71-4.57,12.88-6.51,5.32-2.47,18.46-7.8,23.1-8.48,2.87-.42,5.78.42,8.8-.13,2.4-.44,7.67-2.72,10.79-3.11,4.73-.6,5.93.45,9.09,1.15,1.23.28,2.96-.09,4.04.24.85.26.64,1.46,1.49,1.73,1.61.52,4.63-.2,6.45.12,3.79.66,13.04,7.33,15.24,9.97ZM307.72,389.55c-.23-.23.55-1.45-.32-1.76-1.16-.41-3.59.11-5.08-.07-8.24-.96-8.5-.95-17.73,0-1.93.2-3.9-.36-5.86.11-.76.18-7.77,3.11-9.53,3.8-1.36.53-2.9,1.06-4.36,1.64-3.97,1.58-12.03,5.89-14.95,8.81-1.1,1.09-1.53,2.28-2.59,3.22-.67.59-1.96.94-2.7,1.75-5.25,5.71,2.3,3.84,6.07,4.11,14.3,1.03,29.92.74,44.73.65,4.48-.03,17.92.74,21.76-.76,1.05-.41,4.3-2.68,4.5-3.34.92-6.99-4.27-11.08-6.53-16.63-1.99-2.38-6.75-.82-7.43-1.53ZM308.82,455.64c-.59-.34-14.21-.8-15.37-.87-23.3-1.36-50.39,1.09-74.03.02-1.34.56-5.61.5-5.91.66-.45.24-3.86,6.65-3.69,7.2.13.45,1.26.45,1.32.72.13.53-1.32,2.27-1.6,3.34-.36,1.36,1.09,2.72,1.07,3.72-.03,1.76-1.86,3.08-1.09,5.45.84,2.58,3.93,3.21,5.63,4.95.72.74.94,3.73,1.87,4.13,1.31.57,3.17.33,4.61.76,2.01.6,3.52,2.65,5.39,2.92,3.6.52,21.8.6,25.85.03,1.61-.23,5.64-2.67,7.84-3.11s3.64.16,6.07-.8c2.29-.9,18.35-10.64,20.31-12.42s3.24-2.35,5.82-4.36c.35-.28,7.25-4.42,7.51-4.71.99-1.13,8.82-4.95,9.2-6.09.03-.1-.7-1.5-.78-1.55Z"/>
  <g>
    <path d="M666.17,381.52c.16-.19,1.84-1.08,2.65-1.82,4.57-4.19,8.88-8.58,13.39-12.8.66-.62,1.97-.98,2.69-1.79,1.73-1.94.37-1.31,3.02-3.06,4.72-3.12,7.27-3.53,11.82-5.9,3.45-1.8,7.31-4.1,11.01-5.54s8.88-2.48,12.29-3.92c.67-.29,1.03-1.22,1.69-1.33,3.13-.52,6.96.46,10.25,0,1.97-.27,6.96-2.91,9.25-3.23,2.89-.41,16.05-.41,18.46,0,1.95.33,4.38,2.7,5.81,3.11,2.46.71,7.35-.31,10.11.14,1.52.25,3.48,2.68,5.08,3.1,1.32.35,2.97-.08,4.11.11.62.11-.11,1.28.28,1.64.5.47,1.89.29,2.52.71,5.95,3.98,8.38,10.87,6.37,18.89-1.13,4.49-2.75,8.13-2.49,12.35l-52.76,93.69c2.02.7.08,1.77-.26,3.26-.2.9,1.22.82,1.3,1.19.1.48-.83,1.63-.84,2.45,0,.31,1.51,3.08,1.79,3.31,1.49,1.22,5.67-.16,5.63,1.91-.01.72-2.1,5.59-2.71,6.82-3.43,6.96-8.16,14-12.54,20.87-2.44,3.82-3.4,9.21-9.76,10.09-2.65.37-10.92.32-13.37.05-1.68-.18-1.77-1.13-2.92-1.33-1.64-.28-6.96.44-7.53-.15-.19-.2-.6-2.65-.94-2.91-.64-.49-2.75-.6-2.82-.97-.18-.92,1.66-5.58,1.8-6.93.1-.9-1.23-.67-1.05-1.19.77-2.22,3.62-4.49,1.66-6.14-3.13-2.63-14.05,6.73-18.68,8.87-9.59,4.05-18.62,7.53-28.52,9.41-.74.14-1.04,1.2-1.69,1.31-3.78.65-34.88.56-38.34-.03-1.95-.33-4.36-2.68-5.82-3.11-.94-.27-2.27-.02-3.22-.28-3.71-1.03-11.26-13.71-9.73-17.78.53-1.41,2.19-3.25,2.42-4.48.18-.95-1.59-.8-1.34-1.46.99-2.68,3.11-6.27,4.4-9.04,4.83-10.35,14.25-29.42,22.79-38.96.78-.87,2.38-1.29,3.19-2.17,1.42-1.56,1.76-3.56,2.94-5.02.42-.52,1.55-.27,1.97-.82,3.2-4.14,3.32-2.8,4.31-3.9,1.76-1.96.34-1.23,3.01-3.09,1.57-1.09,4.75-4.01,5.04-4.18.36-.21,6.39-2.6,7.51-3.03,2.42-.93,12.89-5.09,14.64-5.45,1.61-.33,2.95.12,4.33-.21,1.52-.36.24-1.09,5.46-1.86.68-.1,1.02-1.23,1.68-1.34,1.36-.21,2.64.18,4.27-.11,1.96-.34,6.95-2.78,9.31-3.12,6.73-.97,7.53,1.45,15.6-1.77,7.37-2.94,14.1-.15,19.74-2.18.77-.28,1.06-1.14,1.74-1.27,3.24-.61,4.87-1.38,6.97-1.83,2.34-.51,4.41.23,6.47-.13.6-.11.97-.93,1.31-1.07,1.44-.59,2.17-.46,3.98-1.51,1.71-.99,7.67-5.6,8.62-6.9,2.7-3.65,3.41-5.54,1.42-7.77-1.83-2.05-6.86-5.79-10.07-6.7-4.33-1.22-24.66-1.51-30.34-.67-6.43.95-18.53,6.43-24.68,10.5-5.96,3.94-5.26,4.01-8.82,8.52-3.41,4.32-4.63,5.52-9.95,8.21-.71.36-1.09,1.04-1.31,1.13-1.12.51-3.35,0-4.76.14-2.76.27-7.06,1.21-9.55,1.22-2.28.01-4.45-1.47-7.09-1.21l17.79-31.59ZM719.37,463.47c.58-.4,1.79-.4,2.59-1.25,2.04-2.18,3.06-6.27,5.28-8.9s6.78-4.19,7.07-6.97c.35-3.37-2.1-3.86-6.5-2.59-.71.21-3.72,2.22-6.06,2.41-4.53.36-6.09.37-10.85,2.09-4.18,1.51-8.93.12-12.8.69-2.8.41-9.23,2.95-11.47,3.22-6.65.83-9.41-1.05-17.53,1.68-.88.3-1.85,1.26-2.85,1.49-1.71.39-3.2-.13-5.04.24-.45.09-7.07,3.07-7.39,3.31-2.38,1.76-2.5,1.73-5.05,3.39-2.34,1.53-3.91,3.06-5.86,4.67-.25.21-1,.2-1.55.69-3.27,2.9-4.47,7.45-3.69,9.9.52,1.63,1.42,3.1,2.34,4.69,1.06,1.85.52.75,3.03,1.2.24.04.86,2.73,2.17,3.15,8.48-.65,18.81,1.28,27.16.11,2.61-.37,6.77-3.21,7.12-3.26,4.59-.72,3.76.53,9.72-1.96,4.57-1.9,9.22-4.04,14.06-6.98,5.65-3.43,10.71-7.33,16.1-11.04Z"/>
    <path d="M532.87,363.82c5.03-2.6,8.07-5.19,12.54-7.83,3.59-2.11,8.21-3.97,11.88-5.8.81-.4,1.32-1.39,2.18-1.57,5.36-1.17,10.87-.61,15.3-1.42,1.52-.28,2.95-1.39,4.21-1.68,6.48-1.48,18.81-1.72,23.31.02,2.59,1,5.79,2.54,8.83,3.08,2.76.5,3.53.97,5.64,2.33,8.85,5.72,12.3,7.68,15.43,17.39.97,2.99,1.29,7.35,1.7,10.82.33,2.85-.64,4.51-1.27,7.74-.72,3.67-.86,7.08-1.57,10.94-3.66,19.82-23.34,45.06-33.65,66.43-5.38,4.08-5.8,7.68-8.84,11.69-2.14,2.82-8.72,8.2-11.6,10.79-3.33,3-6.29,6.39-9.97,9.69-5.92,5.31-20.98,15.01-28.37,18.93-4.99,2.65-9.66,4.3-14.75,6.54-6.34,2.79-7.92,2.44-13.97,4.03-1.42.37-2.4,1.57-4.14,1.82-8.67,1.23-21.71.56-29.57-.01-1.97-.14-3.74-.01-5.36-.32-.69-.13-.89-1.26-1.8-1.55-2.13-.69-5.47-.5-7.9-1.89-.79-.45-6.06-4.5-6.22-4.85-.05-.11.12-1.21-.3-2.28-.54-1.37-1.11-4.36-1.79-5.39-.57-.86-1.64-.42-2.43-.67-.69-.22.6-1.2-.87-1.31-2.3-.18-2.12.88-2.74,1.15-.86.36-1.67.06-2.05.24-.36.17-1.03,1.91-1.78,2.73-.63.69-1.77,1.17-2.5,2.11-1.65,2.15-2.43,4.98-4.03,7.17-1.73,2.37-7.87,3.07-10.18,2.93-3.01-.19-3.39-.2-6.64,0-1.57.1-2.96.53-3.33-.34,0,0-2.73-1.14-2.73-1.14-1.66-2.94-7.45-6.23-5.57-9.04l5.26-7.84,5.59-15.01,10.48-16.3,9.2-16.33,11.32-16.37,6.15-13.88c1.06-2.38,2.23-6.43,3.51-8.7l6.55-9.92,13.83-24.56,7.24-10.13,3.76-8.61c1.01-2.32,2.24-4.54,3.66-6.63l13.08-19.19,3.67-9.96c.73-1.97,1.8-3.8,3.16-5.39l9.48-11.09c.85-1.31,1.49-2.75,1.9-4.25l3.49-3.84,3.38-4.29,7.06-9.91c1.63-2.89,4.42-4.97,7.67-5.64,1.96-.41,3.87-.65,4.84-.74,3.49-.32,4.43.17,7.26.62l2.79.7c2.11.35,5.79,6.01,3,10.09l-1.61,1.92c-.68.81-1.19,1.76-1.49,2.77l-1.04,3.52-3.71,7.14-6.26,13.13-10.98,16.38c-.47.79-.84,1.65-.99,2.56-.48,3.03-2.24,6.88-4.58,9.93-.77,1.01-2.27,3.01-3.06,4.03-2.33,3-6,7.25-1.03,6,1.09-.27,1.68-1.32,2.35-1.67ZM579.72,389.52c-.28-.26.46-1.45-.36-1.73-1.02-.35-3.01.09-4.29-.09s-1.81-1.21-3.03-1.3c-1.68-.12-3.2,1.04-4.4,1.15-3.88.36-9.57-.44-12.82-.99-3.49-.59-3.95.51-6.5,1-4.58.89-8.18,1.81-13.06,4.07-5.6,2.58-20.46,12.48-24.74,16.47-1.51,1.41-5.67,6.56-6.07,6.86-.36.27-1.44.26-2.11.76-4.37,3.22-5.18,7.22-8,10.63-.92,1.11-2.33,1.7-3.05,2.43-3.57,3.64-7.6,8.75-9,12.67-.37,1.02.36,1.62-.02,2.62-1.46,3.94-.74,3.53-1.26,5.97-.42,1.96-3.06,4.77-3.6,6.91-.46,1.84.9,4.53.81,4.82-1.8,5.79,1.52,7.71.74,11.76-.32,1.64-1.28,3.41.54,4.41.71.39,2.11.14,2.49.48,4.53,4.01,4.23,4.96,11.11,7.17,1.73.56,3.65,2.69,4.55,2.98,1.07.35,16.03.35,17.5,0,1.01-.24,2.15-1.28,3.47-1.69,5.36-1.69,8.47-.77,14.54-3.02,8.9-3.3,11.41-4.03,18.36-10.35.6-.55,1.56-.36,1.96-.88,3.75-4.78,6.1-4.44,10.07-8.05,1.17-1.07,1.25-1.94,1.96-2.82.47-.59,1.4-.4,1.98-.85,5.63-4.42,6.27-8.86,9.42-12.85.42-.53,1.48-.3,2.39-1.2.72-.71,4.59-4.84,5.03-5.42,2.36-3.07,5.11-9.6,4.73-12.28-.06-.44-1.22-.29-1.05-.83,1.46-4.44,5.81-7.86,5.05-12.85-.07-.46-1.19-.27-1.01-.86,2.02-6.46,1.87-11.47-.71-16.28-1.87-3.48-5.83-6.45-9.59-8.52-.46-.25-1.67.03-2.04-.31Z"/>
  </g>
  <path class="cls-1" d="M1192.95,119.48c.28.21,1.37-.03,1.91.06,1.5.25,2.24,1.61,3.17,2.59.87.92,1.61,1.73,2.54,2.75.82.9,2.01,1.43,2,2.98,0,.23-.53,1.49-.65,1.59-.73.6-4.64.34-5.84.36-7.15.12-14.65.02-21.78-.3-.57-.03-3.07.12-3.18,0-.07-.07-.06-1.66,0-1.93.05-.24.57-.13.62-.38.1-.5-.04-1.03.13-1.65.03-.1.98-1.53,1.06-1.64.65-.79,2.19-2.18,3.06-2.7.43-.26,1.19-.53,1.83-.89,2.69-1.51,2.5-1.31,5.55-1.71.65-.09,1.21-.48,1.85-.57,1.75-.24,3.41.38,5.12.59.65.08,1.52-.16,2.09.03.43.14.39.71.53.82Z"/>
  <path d="M994.14,647.38c3.46,2.02,6.59,4.18,11.02,6.09s3.19,1.97,6.38,4.23c1.54,1.09,5.62,3.48,7.34,3.89,3.01.71,4.12,1.94,6.98,3.05,2.42.94,3.88,3.39,5.48,4.91.73.69,2.32.94,2.62,1.32.48.62.17,2.1.63,3.07,3.53,7.51,3.47,6.91,4.79,13.33.21,1.03,2.52,9.11,2.78,9.56,3.12,5.31,4.59,12.31,6.6,18.62.37,1.17,1.99,2.07,2.39,3.57.94,3.59-.54,8.43.19,11.98.76,3.72,1.35,5.3,1.81,9.74,1.02,9.71,1.68,20.96.95,30.77-.79,10.54-7.59,16.2-8.33,26.67-.66,9.22,1.23,16.26-1.6,25.32-.42,1.35.17,3.49-.36,4.15-1.1,1.34-1.26-.54-2.63,3.6-1.09,3.27-9.05,11.73-11.96,14.69-5.96,6.06-10.03,11.02-17.67,15.88-5.81,3.69-8.97,3.69-15.72,5.77-1.46.45-1.17,2.18-2.1,2.34-9.94,1.7-27.41-.12-38.53-.07-5.06.02-15.22,1.21-20.03-.1-1.18-.32-1.73-1.69-3.11-2.12-7.46-2.31-14.15-3.35-20.05-8.26-1.88-1.56-3.08-4-5.49-5.71-3.52-2.51-7.8-4.36-11.54-7.64-3.84-3.35-8.46-11.24-11.31-15.53-4.61-6.94-7.74-13.27-8.94-21.68-.33-2.33-1.97-6.49-2.67-9.68-.14-.64-1.72-.35-1.88-1-.89-3.71.88-9.55-.16-13.51-.37-1.41-1.8-2.28-2.35-3.6-1.11-2.68-.92-7.4-.24-10.2.16-.64,1.4-.42,1.8-1.11,4.09-7-1.26-43.11.97-54.07.49-2.4,3.24-6.72,4.19-9.27,3.37-9.11,4.89-15.23,11.4-22.52,2-2.24,6.37-6.39,7.4-8.03,1.14-1.8,2.17-6.24,2.98-7.36.3-.42,5.07-3.97,6.08-4.78,2.78-2.21,1.61-1.12,4.65-2.34s4.12-3.79,6.24-5.22c4.43-2.98,11.43-4.8,15.01-6.89,2.57-1.49-1.11-1.04,5-2.04,1.47-.24,2.29-1.37,3.72-1.6,3.26-.52,7.28.39,10.84-.2,1.29-.21,3.11-1.63,6.39-2.43,8.19-1.99,8.97-1.81,16.97.01,3.7.84,22.08,3.81,23.09,4.4ZM979.75,698.06c-.44-.29-.33-1.81-1.62-2.19-1.73-.51-4.39.13-6.36-.08-5.19-.57-10.23-2.22-15.56-1.58-1.97.24-3.67,1.29-5.63,1.52-9.26,1.08-8.68.53-16.86,4.58-1.95.97-4.26,1.7-5.56,2.39-2.64,1.4-7.32,5.11-9.29,7.23-.26.28-3.15,4.12-3.23,4.39-.51,1.67-.1,3.09-.39,4.43-.15.67-1.72.37-1.87,1.02-.17.71-.19,4.98.02,5.17.34.3,7.95-.09,9.67-.02,21.67.86,44.46,1.13,66.18.81,3.64-.05,15.52.62,17.74-.98.37-.27,1.98-3.65,1.99-4.26.05-4.15-3.57-5.58-6.07-7.98-2.83-2.71-5.08-4.9-7.73-7.36-2.82-2.61-5.06-6.26-9.62-6.93-1.64-.24-4.94.4-5.81-.17ZM1028.97,780.22c-2.18-.44-19.03-.95-21.29-1.08-30.22-1.7-62.48,1.35-92.92.03-1.15.46-5.41.6-5.84.93-1.41,1.09-.81,7.3-.09,9.03.3.73,1.59.44,1.79,1.12.36,1.23-.06,2.61.65,4.15.23.49,3.87,3.69,3.95,3.96,3.09,10.65,4.23,7.3,12.59,12.7,1.37.89,4.37,4.81,5.5,5.38,2.03,1.02,4.53.61,6.77,1.18,2.75.71,6.24,3.43,7.79,3.67,3.53.54,31.96.3,34.29-.57,1.12-.42,1.07-1.47,1.37-1.61,3.56-1.63,14.05-4.36,16.46-5.58.77-.39,8.24-4.86,9.31-6.05,4.01-4.46,14.59-6.99,17.17-11.85.41-.78,4.99-5.51,5.33-6.47,1.3-3.69.1-6.52-2.83-8.94Z"/>
  <path d="M664.05,643.29c.45.29.34,1.84,1.62,2.19,2.41.66,3.97.25,7.56,1.49,7.07,2.45,13.26,7.18,20.46,10.31,3.94,1.71,5.79,2.72,9.18,5.64,7.6,6.55,18.21,17.07,22.74,25.37.86,1.57,2.11,5.8,2.95,6.96,2.65,3.7.91,2.74,2.07,6.41.72,2.27,4.06,7.49,4.37,9.1.74,3.83-1,10.25.17,13.61.31.9,3.59,5.72,4.19,6.38,1.59,1.75.88,40.4.3,44.82-.41,3.17-4.17,7.1-4.62,9.7-.85,4.93,1.07,12.4-.02,16.86-.15.61-1.41.4-1.81,1.09-1,1.73-.63,4.29-1.18,6.11-1.94,6.46-6.69,16.33-10.78,21.44-3.07,3.83-6.03,10.73-8.72,13.21-2.01,1.85-6.96,3.42-9.64,5.32-1.53,1.08-3.21,3.56-4.63,4.79-6.12,5.31-17.12,10.32-25.58,13.11-2.47.82-5.04-.22-6.3,2.67l-50.31.02c-2.06-3.63-8.67-3.3-12.61-4.43-15.65-4.52-34.03-19.72-41.7-32.91-.56-.97-.49-2.15-1.04-3.13-4.85-8.59-13.24-21.31-14.21-31.21-.47-4.82-.31-6-1.58-10.75-4.48-16.73-3.15-43.89-1.18-61.33.4-3.52,2.7-6.2,2.79-6.57,1.16-4.77,1.21-10.6,2.94-15.92.53-1.64,4.33-6.36,4.42-6.77,1.61-7.57,7.89-13.03,11.46-19.76,5.94-11.19,6.53-10.34,18.19-17.81,1.39-.89,6.01-5.23,6.42-5.42,3.4-1.5,14.89-7.41,17.92-8.13,2.79-.66,5.97.24,8.81-.34,1.64-.33,2.62-1.63,4.08-2.08,11.6-3.52,23.91-1.68,35.72-.28,1.9.23,6.76-.31,7.58.23ZM648.72,694.01c-.44-.28-.32-1.81-1.62-2.19-1.23-.36-9.46-.31-10.78.04-1.23.33-1.85,1.83-3.07,2.15-2.75.74-6,.42-10.18,1.56-14.53,3.97-19.14,10.54-28.38,20.39-4.39,4.67-5.34,4.07-6.79,10.87-.14.67-1.47.47-1.88,1.03-.54.75-5.38,9.84-5.5,10.41-1.04,5.19,1.24,13.67.02,18.52-.16.62-1.5.34-1.81,1.09-2.43,5.88,1.02,7.16,1.79,11.18.89,4.72,1.56,7.42,2.96,11.96,1,3.24,2.38,7.47,4.73,10.02.56.61,3.93,2.67,4.05,2.87.57,1.03.17,2.78.94,4.47,2.95,6.49,10.21,10.38,16.83,13.52,4.17,1.97,10.66,5.44,15.33,6.75,1.36.38,2.91,0,4.22.34,1.35.34,1.78,1.97,3.84,2.29,1.85.29,15.12.29,16.46-.1,1.3-.38,1.2-1.94,1.62-2.19.85-.52,2.68.07,3.87-.12.77-.13.4-1.52,1.16-1.65,4.87-.82,6.49-1.5,10.7-2.58,2.33-.6,8.53-4.85,11.48-6.14,2.34-1.02,3.14,0,5.26-3.45,4.55-7.43,10.27-15.39,14.68-23.49,1.75-3.22,3.21-9.16,3.97-12.7,2.62-12.33,1.49-26.54-4.09-38.09-.96-1.98-1.09.28-2.1-4.51-.14-.65-1.53-.35-1.82-1.09-3.29-8.43-9.66-12.81-16.53-19.33-1.51-1.44-2.78-3.28-2.97-3.44-.39-.34-1.69.04-2.34-.33-.53-.3-.62-1.4-1.21-1.77-4.55-2.88-6.29-1.35-10.41-2.04-.85-.14-.75-1.58-1.5-2.04-2.69-1.64-10.44-1.9-10.9-2.19Z"/>
  <path d="M518.91,811.16c-.17.55-2.39,4.77-3.03,6.24-4.78,10.92-9.73,21.15-18.4,29.55-5.65,5.48-12.66,9.73-19.1,14.32-3.51,2.5-4.18,1.47-7.55,2.3-2.63.65-8.06,3.36-11.24,3.86-7.33,1.17-9.1-1.6-17,2.03-1.31.6-9.65.73-11.35.44-.9-.15-.78-1.62-1.47-2.07-1.88-1.24-15.87.11-19.79-.42-.85-.12-7.35-1.55-7.68-1.75-.46-.28-.35-1.83-1.64-2.18-8.92-2.37-12.58-3.27-20.3-8.47-3.6-2.42-7.79-4.23-11.06-6.46-3.57-2.43-7.88-11.45-10.39-15.38-4.98-7.81-9.88-13.65-11.97-23.62-.55-2.62-4.29-8.31-4.58-9.73-.93-4.69.93-11.47-.02-16.18-.54-2.7-4.31-7.13-4.63-9.69-.63-5.04-.9-34.18.25-37.92.69-2.23,3.91-6.81,4.37-9.11.84-4.19-.91-10.46,0-14.45.15-.65,1.63-.38,2.14-1.49,2.08-4.51,2.11-9.3,4.74-14.46,2.81-5.53,6.25-11.16,7.85-17.23.19-.72,1.72-.38,1.86-1.05,1.2-5.72,1.29-2.8,4.55-6.56,7.22-8.32,12.59-14.27,23.11-19.97,4.47-2.42,10.51-4.42,14.91-6.96.67-.39.49-1.52,1.2-1.64,4.86-.81,13.23-1.27,18.28-1.48,11.54-.48,23.01.74,34.92,1.51,2.94.19,7.48-.55,9.97.13,1.26.34,1.81,1.83,3.08,2.15,11.39,2.88,13.98,4.56,23.52,10.7,2.65,1.71,6.75,3.59,9.29,5.59.34.27,4.2,5.77,4.66,6.59,3.16,5.6,5.43,11.55,8.4,17.7,1,2.07,1.96,4.5,4.1,5.42l-.14,37.03c-.26.69-2.79,2.24-3.59,2.51-2.13.73-17,.84-19.72.42-.39-.06-5.57-1.83-5.98-2.02-.53-.26-4.3-4.53-4.45-4.98-.71-2.06.41-4.34-.65-6.71-.61-1.36-2.64-2.85-3.57-4.18-2.01-2.88-3.39-5.94-5.38-8.99-2.93-4.51-3.1-2.8-6.53-4.65-.64-.34-.4-1.53-1.18-1.66-5.84-.96-3.93-1.9-5.48-2.31-1.66-.44-9.34-1.29-10.32-1.87-.45-.26-.35-1.81-1.63-2.18-1.57-.46-26.83-.48-29.33-.1-2.05.32-2.49,1.95-3.84,2.29-2.75.69-7.7,1.05-10.4,2.17-1.15.48-8.19,7.05-9.68,8.48-3,2.85-6.68,7.31-8.99,10.29-2.76,3.57-3.39,3.28-4.31,7.83-.14.68-1.61.38-2.14,1.5-.94,1.98-.3,3.88-.85,5.72-.7,2.34-3.73,6.58-4.21,8.43-.94,3.59-.93,31.46-.16,35.46.2,1.03,2.27,4.95,2.98,7.09,1.86,5.61,3.35,8.74,7.11,13.83,1.92,2.6,1.08,2.34,2.29,4.6.15.27,4.13,4.48,4.42,4.66,1.53.94,5.31,2.04,6.83,2.88,1.3.73,4.08,3.91,5.82,4.97,2.25,1.36,6.86,3.84,9.16,4.89.63.29,9.75,1.15,11.46,1.24,2.97.14,7.34-.81,9.09-.63,1.07.11,2.25,1.18,3.83,1.4,4.22.6,15.47-2.73,19.66-4.49,3.87-1.63,6.63-4.06,9.48-5.81,1.28-.79,4.23,0,6.29-2.98.91-1.31.54-2.11.91-3.1.27-.74,1.5-.43,1.75-1.17,1.09-3.27,3.65-5.74,5.59-9.37.36-.68,1.67-.47,1.82-1.09.5-2.03-.5-5.02-.05-7.05.09-.39,4.02-3.47,4.62-6.61.31-1.62-.7-4.8.88-5.71.37-.21,7.5-1.1,8.78-1.18,3.23-.2,7.87-.23,11.09-.02,1.61.1,8.69.92,8.69,2.06v38.87Z"/>
  <path d="M792.01,647.19c.47.42-.1,9.88-.04,11.78.11,3.58-.14,8.06.07,11.2.22,3.3,2.05,6.95,2.8,10.16l3.04.07c.44-1.32,2.39-1.86,2.82-2.45.92-1.27.77-3.26,2.34-5.05,4.57-5.22,14.21-15.04,20.01-19.2,4.97-3.56,9.26-5.49,15.28-6.5.72-.12.38-1.36,1.23-1.6,1.89-.56,6.29-2.31,7.19-2.44,1.82-.27,18.19-.62,18.84-.02.17.16-.06,3.12.2,4.28.5,2.18,1.81,4.61,2.56,7.34.21.75,1.75.42,1.88,1,.5,2.3-1.53,3.14-1.87,4.82-.25,1.21.19,2.55-.2,3.87-.62,2.05-4.21,3.56-2.11,7.05,2.48,4.12,1.33,2.56,2.28,6.79.15.64,1.72.35,1.88,1.01.95,3.95-.81,5.43-1.65,8.18-.87,2.87-1.14,3.98-2.35,6.84-.49,1.17-.32,3.03-.83,3.72-2.56,3.5-18.84.66-24.28,2.49-1.51.51-1.1,1.42-1.93,1.69-2.17.71-6.4,1.82-8.29,2.7-.32.15-2.92,3.51-3.16,3.66-1.02.62-3.08-.29-4.25.35-.22.12-2.58,3.02-3.24,3.58-5.91,4.95-9.65,7.58-13.68,14.3-.85,1.42-2.53,3.29-2.58,3.51-1.05,4.73-1.13,2.51-2.1,4.5s-1.63,8.54-2.46,11.42c-.26.9-1.8.71-2.33,1.33-2.9,3.38,1.25,74.53-.39,84.71-.6,3.54-3.24,9.4-2.25,12.36.38,1.14-.21,4.05.18,5.56,1.47,5.65-1.04,12.88-4.88,17.25h-24.37l-1.88-6.84v-208.99c.16-.68,1.61-4.41,1.88-4.41h26.67Z"/>
</svg>