<?xml version="1.0" encoding="UTF-8"?>
<svg id="Capa_1" data-name="Capa 1" xmlns="http://www.w3.org/2000/svg" viewBox="0 0 1280 1280">
  <path d="M964.78,99.83c-.44.95-.99,2.8-2.2,4.85-.79,1.34-2.23,2.56-3.24,4.2-.87,1.41-2.1,2.73-3.07,4.29-.91,1.45-1.91,2.91-2.86,4.42s-.91,3.6-1.84,5.07-3.09,2.27-3.99,3.72c-.98,1.57-1.76,3.19-2.62,4.59-1.04,1.68-2.17,3.1-2.93,4.39-.9,1.52-1.51,3.31-2.49,4.97-.91,1.53-1.79,3.16-2.77,4.81-.92,1.54-1.3,3.47-2.27,5.1-.92,1.55-2.81,2.57-3.78,4.2s-1.74,3.22-2.72,4.84-1.83,3.18-2.8,4.79-1.36,3.46-2.33,5.07-1.42,3.43-2.39,5.04-2.9,2.54-3.87,4.15-1.48,3.4-2.44,5.01-1.44,3.43-2.4,5.03-2.2,2.97-3.17,4.57-1.82,3.21-2.78,4.81-1.9,3.16-2.86,4.76-2.49,2.8-3.45,4.4-.96,3.73-1.92,5.32-2.91,2.56-3.87,4.15-2.11,3.04-3.07,4.63-1.89,3.17-2.85,4.76-1.95,3.14-2.9,4.73-1.75,3.25-2.71,4.85-1.75,3.25-2.71,4.85-.86,3.79-1.81,5.38-2.93,2.55-3.88,4.15-1.25,3.56-2.2,5.15-2.36,2.9-3.31,4.49-2.15,3.02-3.1,4.62-.79,3.82-1.74,5.42-2.63,2.74-3.57,4.33-1.2,3.58-2.14,5.18-2.02,3.1-2.96,4.7-2.65,2.74-3.58,4.33-1.65,3.33-2.58,4.92-1.13,3.63-2.06,5.23-2.09,3.07-3.02,4.67-2.32,2.94-3.25,4.53-1.76,3.26-2.69,4.86-2.52,2.82-3.45,4.42-1.98,3.14-2.9,4.74-1.35,3.5-2.27,5.1-1.91,3.18-2.83,4.78-2.24,2.99-3.16,4.59-1.49,3.42-2.41,5.02-1.96,3.15-2.87,4.76-1.71,3.29-2.62,4.9-1.56,3.38-2.47,4.98-2.49,2.86-3.4,4.46-1.51,3.41-2.41,5.02-1.77,3.27-2.66,4.87-1.27,3.55-2.16,5.16-1.99,3.15-2.88,4.76-1.19,3.59-2.08,5.2-3.14,2.52-4.02,4.14-1.4,3.47-2.28,5.09-.98,3.7-1.85,5.31-2.74,2.76-3.6,4.38-.68,3.85-1.53,5.47-2.68,2.8-3.53,4.42-1.86,3.24-2.69,4.86-.77,3.8-1.59,5.42-2.81,2.77-3.62,4.4-.22,4.06-1.01,5.69-2.98,2.71-3.76,4.34c-.82,1.71-1.48,3.46-2.24,5.09-.8,1.73-1.08,3.64-1.82,5.27-.79,1.75-1.8,3.33-2.5,4.97-.76,1.77-.92,3.72-1.58,5.35-.73,1.81-.81,3.74-1.41,5.38-.69,1.87-1.79,3.42-2.3,5.04-.62,1.96-1.8,3.56-2.14,5.16-.39,1.82.1,3.76-.18,5.54s-.4,3.63-.58,5.42-.59,3.62-.66,5.42-1.3,3.68-1.25,5.49.86,3.66,1.02,5.46.7,3.61.98,5.4.24,3.69.64,5.46.64,3.65,1.17,5.39,2.3,3.08,2.94,4.79.95,3.52,1.69,5.19.99,3.57,1.82,5.2,1.38,3.43,2.31,5.01,2.42,2.81,3.43,4.34,2.23,3,3.33,4.5,2.12,3.08,3.3,4.52,3.08,2.24,4.34,3.62,1.45,3.78,2.78,5.08,2.65,2.68,4.04,3.92,2.81,2.52,4.27,3.68,3.35,1.81,4.86,2.9,2.83,2.51,4.39,3.53,3.23,1.93,4.84,2.87,3.78.86,5.44,1.71,2.85,2.67,4.55,3.44,3.54,1.27,5.27,1.95,3.89.19,5.65.8,3.37,1.61,5.16,2.13,3.54,1.15,5.35,1.58,3.74.21,5.58.55,3.57,1.12,5.42,1.38,3.71.1,5.57.26,3.65.99,5.52,1.07,3.73.89,5.6.87,3.74-.15,5.58-.17,3.74-.29,5.58-.3,3.74-.04,5.58-.06,3.73-.38,5.58-.4,3.74.08,5.58.06,3.74.04,5.58.02,3.73-.59,5.57-.62,3.74.07,5.58.05,3.73-.7,5.57-.72,3.75.85,5.59.82,3.73-.75,5.57-.78,3.75.62,5.59.59,3.73-.9,5.57-.93,3.75.3,5.59.27,3.75.21,5.59.18,3.74.05,5.58.02,3.76.85,5.6.81,3.72-1.23,5.56-1.27,3.74-.04,5.58-.08,3.77.9,5.6.86,3.73-.87,5.56-.91,3.77.87,5.61.82,3.73-1.11,5.56-1.15,3.78.86,5.61.81,3.74-.49,5.57-.54,3.76.12,5.59.06,3.73-.71,5.56-.77,3.76.23,5.59.17,3.75-.41,5.57-.47,3.74-.46,5.57-.53,3.76-.12,5.58-.19,3.74-.49,5.57-.56,3.78.31,5.59.24,3.73-.84,5.55-.92c1.9-.08,3.79.46,5.6.38,1.91-.08,3.81.92,5.62.84,1.91-.09,3.73-1.07,5.53-1.16,1.91-.09,3.78.12,5.59.04,1.91-.09,3.72-1.29,5.52-1.38,1.92-.1,3.81.54,5.61.45,1.92-.1,3.79.12,5.59.02,1.92-.1,3.76-.47,5.56-.57,1.92-.1,3.75-.67,5.55-.76,1.92-.09,3.83,1,5.63.91,1.91-.09,3.71-1.52,5.52-1.59,1.91-.08,3.79.54,5.61.48s3.74-.29,5.57-.33,3.74.83,5.59.82,3.7-.69,5.57-.68,3.71-.72,5.59-.68,3.66.82,5.56.88,3.7-.68,5.6-.59c1.8.09,3.66.26,5.57.37,1.8.11,3.57,1.56,5.48,1.69,1.79.12,3.64.27,5.56.41,1.79.14,3.66.04,5.58.19,1.8.15,3.73-.66,5.64-.5,1.8.16,3.58,1.14,5.49,1.32,1.8.16,3.59.95,5.5,1.13,1.81.17,3.57.35,5.37.64s3.86-.8,5.64-.4,3.39,1.52,5.14,2.03,3.5,1.04,5.21,1.66,3.2,1.8,4.87,2.52,3.62.87,5.23,1.7,2.75,2.55,4.31,3.47,3.11,1.84,4.59,2.87,3.1,1.9,4.51,3.03,2.79,2.33,4.09,3.57,2.53,2.6,3.71,3.95,1.98,3.02,3,4.5,2.54,2.67,3.37,4.26,1.46,3.32,2.06,5.01,2.17,3.24,2.49,5.03-.63,3.74-.64,5.57.69,3.71.35,5.53-.74,3.62-1.39,5.38c-.61,1.65-2.15,2.98-3.06,4.64-.84,1.53-1.88,2.99-3,4.52-1.03,1.41-2.33,2.65-3.6,4.06-1.17,1.3-2.66,2.31-4.05,3.6-1.29,1.2-2.19,2.87-3.67,4.06-1.36,1.09-2.51,2.71-4.17,3.68-1.52.88-3.5,1.06-5.25,1.85-1.61.72-3.48.89-5.27,1.54-1.67.6-3,2.42-4.82,2.95-1.71.5-3.47,1.15-5.3,1.59-1.74.42-3.73,0-5.57.38s-3.46,1.29-5.31,1.61-3.62.43-5.48.7-3.55.99-5.41,1.22-3.69-.14-5.55.05-3.67-.07-5.52.09-3.65.1-5.5.23-3.66-.04-5.51.07-3.58,1.64-5.43,1.72-3.72-1.38-5.57-1.31-3.62,1.32-5.47,1.37-3.67-.35-5.52-.32-3.66,0-5.51,0-3.66.88-5.51.89-3.67-1.22-5.51-1.23-3.68,1.13-5.52,1.11-3.65-1.27-5.49-1.3-3.68.49-5.52.45-3.69.42-5.52.37-3.65-.87-5.49-.93-3.7.63-5.53.56-3.64-1.26-5.47-1.33-3.68-.02-5.51-.09-3.67-.19-5.5-.27-3.72.68-5.54.6-3.67-.35-5.5-.44-3.68-.21-5.5-.3-3.72.56-5.54.47-3.6-1.88-5.41-1.98-3.75.92-5.56.83-3.7-.13-5.51-.23-3.71.08-5.52-.02-3.64-1.27-5.44-1.36-3.72.11-5.52.02-3.75.78-5.55.69-3.67-1.13-5.46-1.21c-1.89-.08-3.71-.49-5.49-.56-1.9-.07-3.73-.28-5.5-.33-1.91-.05-3.78,1.15-5.53,1.12-1.89-.03-3.74-1.04-5.58-1.07s-3.77,1.01-5.61.98-3.76.07-5.59.05-3.75-.71-5.58-.73-3.77.54-5.6.51-3.75-.52-5.59-.54-3.76-.4-5.59-.42-3.77.33-5.6.31-3.76-.14-5.59-.16-3.76-.22-5.59-.23-3.77.8-5.59.79-3.77-.26-5.59-.27-3.77-.8-5.59-.8c-1.91,0-3.77-.25-5.59-.24-1.91,0-3.77,1.03-5.58,1.05-1.91.02-3.77.32-5.58.34-1.92.03-3.79-.57-5.6-.54-1.92.04-3.77.22-5.59.27-1.92.05-3.8-.55-5.61-.48-1.92.07-3.77.29-5.58.37-1.91.09-3.81-.49-5.62-.38-1.91.11-3.72,1.05-5.53,1.19-1.9.14-3.83-.5-5.64-.34s-3.62,1.57-5.44,1.77-3.87-.74-5.7-.5-3.48,2.07-5.32,2.34-3.81-.36-5.65-.05-3.54,1.25-5.39,1.59-3.83-.4-5.69-.04-3.67.46-5.53.85-3.57.9-5.43,1.3-3.54,1.02-5.41,1.43c-1.77.39-3.68.36-5.55.77-1.77.39-3.37,1.76-5.24,2.18-1.77.39-3.56.92-5.43,1.34-1.77.39-3.82-.25-5.69.17-1.77.39-3.54,1-5.41,1.41s-3.31,2.09-5.18,2.5-3.71.4-5.51.81-3.48,1.41-5.27,1.84-3.91-.37-5.7.08-3.65.75-5.43,1.22-3.23,2.29-5.01,2.78-3.82.12-5.59.63-3.6.91-5.37,1.44-3.59.97-5.35,1.52-3.33,1.76-5.09,2.33-3.47,1.3-5.22,1.89-3.94-.03-5.68.58-2.98,2.68-4.72,3.31-3.57,1.02-5.3,1.68-3.55,1.11-5.26,1.78-3.58,1.05-5.29,1.74-3.63.95-5.33,1.66-3.27,1.8-4.96,2.54-3,2.38-4.68,3.14-3.58,1.08-5.25,1.86-3.77.71-5.43,1.51-2.86,2.59-4.52,3.42-3.58,1.14-5.22,1.98-3.23,1.83-4.86,2.7-3.62,1.12-5.24,2-3.3,1.72-4.91,2.62-2.58,2.96-4.18,3.88-3.64,1.12-5.23,2.07-2.69,2.72-4.26,3.69-3.21,1.85-4.77,2.84-3.73,1.05-5.28,2.06-2.73,2.6-4.26,3.63-3.47,1.5-4.99,2.55-3.03,2.14-4.54,3.21-2.23,3.25-3.73,4.33-3.88.99-5.36,2.09-2.38,3-3.85,4.12-3.49,1.55-4.95,2.69-2.15,3.25-3.59,4.41-2.69,2.55-4.12,3.73-3.84,1.18-5.25,2.38-2.32,2.99-3.72,4.2-3.36,1.79-4.74,3.02-2.69,2.57-4.06,3.81-2.35,2.93-3.7,4.19-2.37,2.89-3.71,4.16-2.73,2.49-4.07,3.78-3.07,2.16-4.38,3.46-2.37,2.87-3.68,4.18-2.37,2.86-3.66,4.19-2.72,2.52-4,3.86-2.29,2.93-3.55,4.28-2.47,2.75-3.72,4.12-2.87,2.39-4.11,3.76-2.23,2.97-3.46,4.35-3.21,2.1-4.43,3.5-2.12,3.06-3.33,4.47-2.32,2.89-3.51,4.31-1.99,3.16-3.18,4.58-3.24,2.12-4.42,3.56-1.32,3.7-2.48,5.14-3.26,2.13-4.41,3.58-1.85,3.26-2.99,4.72-1.95,3.17-3.08,4.64-3.15,2.25-4.27,3.72-2.14,3.02-3.26,4.5-2.33,2.89-3.43,4.37-2.29,2.91-3.39,4.4-1.66,3.37-2.75,4.87-2.5,2.76-3.58,4.26-1.76,3.29-2.84,4.8-2.75,2.59-3.81,4.11-1.64,3.37-2.7,4.89-1.8,3.25-2.86,4.78-2.82,2.55-3.87,4.08-1.93,3.16-2.98,4.69-1.47,3.48-2.51,5.01-2.79,2.58-3.82,4.12-1.62,3.37-2.65,4.91-2.4,2.85-3.42,4.4-1.14,3.68-2.16,5.23-2.16,3.01-3.18,4.56-3,2.46-4.01,4.02-1.15,3.66-2.16,5.21-2.23,2.96-3.24,4.52-2.15,3.02-3.15,4.57-2.12,3.04-3.12,4.6-1.63,3.35-2.63,4.91-1.56,3.39-2.56,4.96-2.21,2.98-3.21,4.54-1.9,3.17-2.9,4.73-2.26,2.95-3.25,4.51-2.34,2.9-3.34,4.46-2.31,2.92-3.31,4.48-1.4,3.5-2.39,5.06-2.47,2.82-3.47,4.38-1.34,3.53-2.34,5.1-1.5,3.44-2.5,5.01c-.91,1.43-2.37,2.68-3.42,4.32-.93,1.46-2.17,2.85-3.21,4.46-.95,1.48-1.44,3.33-2.47,4.93-.96,1.49-2.54,2.65-3.56,4.23-.96,1.5-1.16,3.55-2.17,5.12s-2.81,2.49-3.83,4.06-2.36,2.79-3.37,4.36-1.84,3.13-2.85,4.69-1.26,3.51-2.27,5.07-2.99,2.39-4,3.94-1.4,3.43-2.41,4.98-1.92,3.09-2.93,4.64-1.65,3.27-2.66,4.81-2.7,2.59-3.71,4.13-2.02,3.04-3.03,4.57-.87,3.79-1.89,5.33-2.08,3-3.09,4.53-2.75,2.56-3.76,4.09-1.22,3.58-2.23,5.11-3.37,2.15-4.39,3.67-1.52,3.39-2.53,4.91-1.81,3.19-2.83,4.71-2.49,2.74-3.51,4.25-1.12,3.67-2.14,5.18-2.59,2.68-3.61,4.19-1.65,3.31-2.68,4.82-2.66,2.63-3.69,4.13-2.49,2.74-3.52,4.24-1.92,3.13-2.96,4.63-1.22,3.63-2.25,5.12-2.81,2.52-3.85,4.01-2.04,3.06-3.08,4.55-1.8,3.24-2.85,4.71-2.2,2.96-3.25,4.43-2.54,2.71-3.6,4.17-2.34,2.86-3.41,4.31-2.1,3.04-3.16,4.49-2.5,2.75-3.57,4.18c-1.13,1.5-2.25,2.94-3.33,4.36-1.14,1.5-1.84,3.27-2.92,4.67-1.17,1.5-2.03,3.15-3.13,4.52-1.2,1.5-2.94,2.43-4.05,3.77-1.25,1.5-2.53,2.78-3.66,4.06-1.33,1.51-2.27,3.09-3.42,4.26-1.52,1.55-2.31,3.41-3.47,4.32s-2.33,2.33-3.82,3.24c-1.37.83-3.04,1.39-4.53,2.1s-3.18,1.22-4.68,1.71c-1.69.55-3.41,1.05-4.88,1.15-1.92.13-3.83-.62-5.68-.7s-3.79-.1-5.62-.39-3.78-.47-5.58-.97-3.8-.74-5.53-1.45-3.24-2.06-4.88-2.98-3-2.28-4.52-3.39-3.63-1.54-5.02-2.81-2.8-2.63-4.05-4.05-2.44-2.96-3.53-4.51-1.48-3.55-2.4-5.2-2.44-3.03-3.18-4.77-.35-3.89-.91-5.7-2.28-3.33-2.64-5.19-.3-3.83-.47-5.72.85-3.79.89-5.68-.01-3.72.23-5.6.06-3.79.51-5.64.53-3.8,1.18-5.59,2.47-3.02,3.31-4.74,1.9-3.12,2.92-4.74c1.53-2.3.61-2.91,2.16-5.21s1.48-2.34,3.02-4.63,1.61-2.25,3.16-4.54,1.8-2.12,3.34-4.42,2.22-1.84,3.77-4.13,1.48-2.34,3.03-4.63,1.19-2.53,2.74-4.83,1.4-2.39,2.95-4.68,1.25-2.49,2.8-4.79,1.62-2.24,3.17-4.53,2.36-1.74,3.91-4.04.87-2.75,2.41-5.04,1.32-2.45,2.87-4.74,1.71-2.18,3.26-4.48,2.02-1.98,3.56-4.27,1.84-2.1,3.39-4.39,1.14-2.57,2.68-4.86,1.3-2.46,2.85-4.75,2.01-1.98,3.55-4.28.71-2.86,2.26-5.15,1.39-2.4,2.94-4.69,2.38-1.73,3.92-4.03,1.47-2.34,3.02-4.63.82-2.78,2.36-5.07,2.01-1.98,3.56-4.27,1.82-2.11,3.37-4.4.97-2.68,2.51-4.97,1.13-2.57,2.67-4.87,1.98-2,3.53-4.29,1.52-2.31,3.06-4.6,2.11-1.91,3.66-4.21,1.07-2.62,2.61-4.91,1.88-2.07,3.43-4.36,1.11-2.59,2.66-4.88,1.46-2.35,3.01-4.64,1.63-2.24,3.18-4.53,1.82-2.11,3.37-4.4,1.31-2.45,2.85-4.75,1.2-2.53,2.75-4.82,2.16-1.88,3.71-4.17,1.03-2.64,2.58-4.93,2.2-1.85,3.75-4.14,1-2.66,2.55-4.96,2.66-1.54,4.2-3.84.69-2.87,2.24-5.16,2-1.99,3.55-4.28,1.05-2.63,2.6-4.92,2.16-1.88,3.71-4.17,1.28-2.47,2.83-4.77,1.63-2.24,3.18-4.53,1.59-2.27,3.14-4.56,1.58-2.27,3.13-4.57.6-2.94,2.15-5.23,2.64-1.56,4.19-3.85.58-2.95,2.13-5.24,1.43-2.37,2.98-4.66,1.55-2.29,3.1-4.59,2.4-1.72,3.95-4.01,1.66-2.22,3.21-4.51,1.43-2.38,2.98-4.67,1.66-2.22,3.21-4.51.94-2.71,2.49-5,1.19-2.54,2.74-4.84,2.79-1.46,4.34-3.76,1.67-2.24,3.16-4.58c.52-1.06.61-3.22,1.6-5.48.65-1.49,2.27-2.82,3.08-4.72.68-1.58.68-3.61,1.45-5.42.69-1.63,1.68-3.23,2.42-5.01.69-1.66,1.31-3.41,2.03-5.17s1.13-3.5,1.85-5.25,1.77-3.26,2.48-4.99.3-3.87,1-5.59,2.66-2.93,3.35-4.64.61-3.77,1.29-5.47,1.42-3.46,2.09-5.15c.7-1.77,1.4-3.49,2.05-5.16.71-1.8,2.01-3.29,2.64-4.94.71-1.85.5-3.92,1.1-5.52.74-1.96,2.18-3.42,2.72-4.92.97-2.73.59-4.78.68-5.47.23-1.82,1.22-3.56,1.29-5.39s-.31-3.66-.4-5.49-.93-3.55-1.16-5.37.39-3.74.02-5.55,0-3.8-.5-5.57-1.29-3.48-1.91-5.22-1.58-3.34-2.3-5.04-1.52-3.35-2.34-5-1.55-3.34-2.46-4.95-1.51-3.4-2.5-4.96-2.32-2.89-3.38-4.39-2.95-2.37-4.08-3.82-1.26-3.71-2.45-5.11-3.2-2.08-4.45-3.42-1.92-3.26-3.23-4.54-3.61-1.52-4.97-2.74-2.33-2.88-3.74-4.05-2.78-2.4-4.23-3.51-2.55-2.76-4.05-3.8-3.01-2.18-4.55-3.15-3.96-.53-5.55-1.42-3.1-1.94-4.73-2.75-3.2-1.79-4.86-2.52-3.34-1.51-5.04-2.15-3.43-1.32-5.16-1.85-3.31-1.94-5.07-2.36-3.8.12-5.59-.18-3.5-1.55-5.29-1.83-3.72-.22-5.5-.49-3.81.48-5.6.23-3.65-.63-5.44-.86-3.55-1.48-5.34-1.69-3.82.85-5.62.65-3.69-.29-5.48-.47-3.56-1.71-5.36-1.86-3.75.39-5.55.26-3.7-.11-5.51-.22-3.71.29-5.52.2-3.64-1.64-5.45-1.7-3.7-.11-5.52-.14-3.7-.19-5.52-.2-3.69,1.04-5.51,1.05-3.68-.48-5.51-.45-3.67.23-5.5.28-3.68-.33-5.52-.26-3.67-.07-5.51,0-3.58,1.75-5.43,1.84-3.67-.37-5.52-.28-3.7-.94-5.55-.85-3.64.29-5.49.38-3.62.4-5.48.49-3.61.72-5.47.8-3.62.53-5.49.61-3.63.36-5.49.42-3.67-.81-5.53-.75-3.64-.07-5.51-.03-3.64.11-5.5.14-3.64,0-5.51.04-3.64.26-5.5.28-3.64-.16-5.51-.16-3.64.49-5.51.49-3.73-.61-5.49-.61c-1.91,0-3.74.84-5.49.83-1.92,0-3.75-.5-5.49-.51-1.94,0-3.76-.59-5.49-.6-1.96,0-3.78.13-5.49.12-1.98-.01-3.81.73-5.49.72-2.03-.02-3.85-.04-5.49-.06-2.09-.03-3.91.18-5.49.14-2.18-.05-3.94-.56-5.47-.64-2.13-.1-3.78-.46-5.45-.61s-3.34-.2-5.47-.4c-1.53-.14-3.36.54-5.53.37-1.58-.13-3.36-.49-5.45-.63-1.64-.11-3.46-.11-5.48-.24-1.68-.1-3.48-.43-5.46-.55-1.7-.1-3.47-1.14-5.42-1.24-1.72-.09-3.58.34-5.51.25s-3.86-.11-5.63-.47c-1.92-.39-3.77-.84-5.46-1.52-1.79-.72-2.98-2.4-4.53-3.4s-3.39-1.69-4.72-3-2.59-2.71-3.68-4.26-2.09-3.11-2.92-4.83-1.34-3.49-1.92-5.31-1.85-3.43-2.2-5.31.22-3.84.08-5.74-.32-3.75-.27-5.64-.05-3.79.18-5.67,1.59-3.52,2-5.37.15-3.83.72-5.62,1.09-3.63,1.83-5.36,1.43-3.54,2.34-5.17,2.13-3.16,3.22-4.68,2.03-3.28,3.3-4.65,3.62-1.62,5.07-2.81,2.01-3.71,3.63-4.66,3.62-1.36,5.39-2.04c1.5-.58,3.36-1.39,5.52-1.87,1.71-.38,3.69-.46,5.74-.78,1.79-.28,3.65-1.07,5.65-1.32,1.83-.22,3.92,1.18,5.9.99,1.86-.18,3.7-1.06,5.66-1.22s3.77-.68,5.72-.81,3.82-.15,5.76-.26,3.83-.3,5.75-.39,3.84-.33,5.76-.41,3.84-.43,5.75-.5,3.9,1.05,5.8.99,3.71.23,5.5.17,3.67-.99,5.46-1.05c1.88-.06,3.7-.26,5.48-.32,1.88-.06,3.7-.48,5.48-.54,1.88-.06,3.76,1.39,5.54,1.33,1.89-.06,3.67-1.45,5.44-1.51,1.89-.06,3.72-.29,5.48-.35,1.9-.06,3.77,1.18,5.53,1.12,1.91-.06,3.71-.89,5.46-.95,1.92-.07,3.73-.88,5.46-.94,1.94-.07,3.77,0,5.49-.05,1.96-.07,3.82.94,5.53.88,1.99-.06,3.8-.36,5.48-.42,2.03-.06,3.83-.92,5.47-.96,2.1-.05,3.92.41,5.5.39,2.2-.03,3.99-.62,5.51-.58,2.12.05,3.67,1.66,5.37,1.84,1.61.17,3.4-.66,5.57-.37,1.52.2,3.17,1.26,5.34,1.52,1.58.19,3.49-.55,5.56-.33,1.64.17,3.32,1.68,5.33,1.87,1.68.16,3.5.27,5.48.44,1.7.15,3.57-.24,5.52-.08,1.72.14,3.62-.67,5.54-.52,1.74.13,3.52.75,5.43.89,1.75.13,3.6-.26,5.51-.13,1.75.12,3.5,1.45,5.39,1.58,1.76.12,3.6.02,5.49.14,1.77.11,3.63-.45,5.52-.33,1.77.11,3.59.29,5.47.4,1.78.11,3.6.16,5.48.27s3.57.78,5.45.88,3.64-.37,5.51-.27,3.58.94,5.44,1.04,3.61.46,5.47.56,3.72-.09,5.55,0,3.69.64,5.52.71,3.71.06,5.55.11,3.72-.4,5.56-.36,3.71.13,5.54.16,3.71-.52,5.55-.51,3.7.35,5.54.34,3.71.44,5.55.42,3.7-.56,5.54-.6,3.68-.73,5.52-.79,3.73.64,5.57.56,3.67-.77,5.51-.87,3.7-.12,5.54-.24,3.78.94,5.61.81,3.64-1.02,5.47-1.17,3.65-.74,5.48-.91,3.75.31,5.58.11,3.71-.21,5.53-.43,3.67-.52,5.5-.76,3.52-1.62,5.34-1.88,3.88.92,5.7.64,3.69-.46,5.5-.76,3.52-1.41,5.33-1.74,3.59-.93,5.4-1.28,3.58-.97,5.38-1.34,3.61-.78,5.41-1.18,3.91.45,5.7.03,3.4-1.72,5.18-2.17,3.5-1.24,5.27-1.72,3.78-.24,5.54-.75,3.34-1.76,5.1-2.3,3.9.05,5.65-.51,3.35-1.7,5.09-2.29,3.39-1.52,5.13-2.13,3.42-1.43,5.14-2.07,3.26-1.81,4.97-2.48,3.42-1.39,5.12-2.09,3.86-.37,5.54-1.11,3.54-1.16,5.22-1.92,2.82-2.71,4.48-3.5,3.67-.91,5.31-1.73,3.19-1.9,4.82-2.75,3.65-1.02,5.27-1.9,2.94-2.33,4.55-3.24,2.89-2.38,4.48-3.31,3.08-2.03,4.65-2.99,3.27-1.73,4.82-2.72,3.38-1.58,4.91-2.6,3.11-2,4.63-3.04,3.38-1.63,4.88-2.7,2.42-2.95,3.91-4.05,2.96-2.2,4.43-3.32,2.93-2.24,4.37-3.39,3.03-2.13,4.45-3.3,2.68-2.55,4.08-3.75,2.44-2.81,3.83-4.03,3.33-1.81,4.7-3.05,2.77-2.44,4.12-3.71,2.72-2.5,4.05-3.78,2.16-3.07,3.47-4.37,2.71-2.5,4-3.82,2.28-2.92,3.55-4.26,3.36-1.91,4.61-3.27,1.97-3.2,3.2-4.57,2.34-2.85,3.55-4.24,3.07-2.22,4.27-3.63,1.73-3.36,2.91-4.79,2.7-2.55,3.87-3.99,2.53-2.7,3.68-4.15,2.72-2.57,3.84-4.03,1-3.88,2.11-5.35,2.33-2.86,3.42-4.35,2.89-2.46,3.97-3.96,1.44-3.5,2.51-5.01,2.79-2.55,3.84-4.07,2-3.11,3.03-4.64,1.66-3.33,2.68-4.87,2.04-3.07,3.06-4.62,2.79-2.59,3.79-4.15,1.58-3.37,2.57-4.93,2.62-2.71,3.6-4.28,1.15-3.63,2.12-5.2,1.52-3.39,2.48-4.97,2.86-2.59,3.81-4.17,1.84-3.2,2.78-4.8.97-3.71,1.9-5.31,1.8-3.22,2.72-4.82,2.96-2.56,3.87-4.17,1.56-3.36,2.47-4.97,1.59-3.34,2.49-4.96,1.2-3.55,2.09-5.17,2.64-2.76,3.53-4.38,1.28-3.5,2.16-5.13,2.16-3.02,3.04-4.65,1.48-3.39,2.35-5.02,2.18-3.02,3.05-4.65,1.48-3.39,2.35-5.03.79-3.75,1.65-5.39,1.62-3.31,2.47-4.95,1.63-3.31,2.48-4.95,2.95-2.62,3.8-4.26,1.28-3.49,2.13-5.13,1.95-3.15,2.79-4.79,1.25-3.5,2.1-5.15,2.22-3.01,3.06-4.65,1.38-3.44,2.22-5.08,1.61-3.32,2.46-4.96,2.25-2.99,3.1-4.64.33-3.98,1.18-5.62,2.5-2.86,3.35-4.51,1.32-3.47,2.16-5.12,1.64-3.31,2.49-4.95,1.88-3.18,2.73-4.82,1.32-3.47,2.17-5.12,2.83-2.69,3.68-4.33.61-3.85,1.47-5.48,2.06-3.09,2.92-4.73,1.77-3.24,2.63-4.88,1.5-3.38,2.37-5.02,2.58-2.81,3.45-4.44,1.23-3.53,2.1-5.16,1.27-3.51,2.15-5.14,3.05-2.54,3.93-4.17,1.28-3.5,2.17-5.13,1.48-3.4,2.38-5.01,2.52-2.82,3.42-4.44.33-4.04,1.23-5.65,1.93-3.15,2.84-4.76,2.36-2.91,3.27-4.51,1.63-3.32,2.55-4.92,1.59-3.34,2.52-4.94,2.55-2.78,3.49-4.38,1.39-3.47,2.33-5.06,2-3.11,2.95-4.7,1.99-3.11,2.95-4.69,2.52-2.79,3.48-4.37,1.93-3.15,2.9-4.72,1.97-3.12,2.94-4.69,2.05-3.07,3.04-4.63,1.75-3.26,2.75-4.82,1.11-3.67,2.12-5.23,2.16-3,3.17-4.55,2.93-2.49,3.94-4.04,1.97-3.12,3-4.66,1.01-3.77,2.04-5.3,2.8-2.57,3.84-4.09,1.9-3.18,2.95-4.7,2.57-2.71,3.63-4.22,1.98-3.12,3.05-4.63,2.38-2.83,3.46-4.34.89-3.92,1.98-5.41,3.48-2.03,4.58-3.52c.98-1.33,1.24-3.77,2.56-5.72,1.1-1.62,2.1-3.47,3.28-5.2s3.16-2.94,4.27-4.52c1.39-1.98,2.07-4.18,3.07-5.38,1.22-1.45,2.83-2.51,4.1-3.8s2.85-2.41,4.23-3.59,2.7-2.6,4.18-3.65,2.69-2.82,4.26-3.72,4.04-.29,5.7-1.01,2.97-2.69,4.71-3.22,3.84-.01,5.64-.33,3.6-1.34,5.42-1.43,3.72.58,5.54.74,3.82-.26,5.61.16,3.48,1.43,5.19,2.12,3.01,2.15,4.6,3.09,3.97.77,5.4,1.96,2.09,3.2,3.34,4.59,3.04,2.33,4.07,3.9,1.07,3.62,1.87,5.33,2,3.14,2.56,4.96-.05,3.74.29,5.61c.32,1.77,1.74,3.44,1.87,5.34.13,1.8.53,3.7.48,5.6-.05,1.8-1.63,3.54-1.85,5.44-.21,1.79,1.09,3.88.73,5.75-.35,1.77-1.45,3.45-1.95,5.29-.47,1.74-1,3.53-1.61,5.34s-.91,3.59-1.62,5.35-1.69,3.28-2.49,5.01Z"/>
</svg>